<!DOCTYPE svg PUBLIC "-//W3C//DTD SVG 1.1//EN" "http://www.w3.org/Graphics/SVG/1.1/DTD/svg11.dtd">
<!-- Uploaded to: SVG Repo, www.svgrepo.com, Transformed by: SVG Repo Mixer Tools -->
<svg fill="#000000" width="800px" height="800px" viewBox="0 0 24 24" id="email" data-name="Flat Line" xmlns="http://www.w3.org/2000/svg" class="icon flat-line">
<g id="SVGRepo_bgCarrier" stroke-width="0"/>
<g id="SVGRepo_tracerCarrier" stroke-linecap="round" stroke-linejoin="round"/>
<g id="SVGRepo_iconCarrier">
<path id="secondary" d="M20.61,5.23l-8,6.28a1,1,0,0,1-1.24,0l-8-6.28A1,1,0,0,0,3,6V18a1,1,0,0,0,1,1H20a1,1,0,0,0,1-1V6A1,1,0,0,0,20.61,5.23Z" style="fill: #2ca9bc; stroke-width: 2;"/>
<path id="primary" d="M20,19H4a1,1,0,0,1-1-1V6A1,1,0,0,1,4,5H20a1,1,0,0,1,1,1V18A1,1,0,0,1,20,19ZM20,5H4a1,1,0,0,0-.62.22l8,6.29a1,1,0,0,0,1.24,0l8-6.29A1,1,0,0,0,20,5Z" style="fill: none; stroke: #ffffff; stroke-linecap: round; stroke-linejoin: round; stroke-width: 2;"/>
</g>
</svg>